<mxfile host="app.diagrams.net" modified="2024-05-31T06:30:02.749Z" agent="Mozilla/5.0 (Windows NT 10.0; Win64; x64) AppleWebKit/537.36 (KHTML, like Gecko) Chrome/125.0.0.0 Safari/537.36" version="24.4.10" etag="76A2lT1b54kiVeh8gfIc" type="github">
  <diagram name="Page-1" id="B86UW4wO04ksYAh3yfGE">
    <mxGraphModel>
      <root>
        <mxCell id="0" />
        <mxCell id="1" parent="0" />
      </root>
    </mxGraphModel>
  </diagram>
</mxfile>
